<svg xmlns="http://www.w3.org/2000/svg" xmlns:xlink="http://www.w3.org/1999/xlink" width="100" zoomAndPan="magnify" viewBox="0 0 75 74.999997" height="100" preserveAspectRatio="xMidYMid meet" version="1.0"><defs><g/><clipPath id="43b24d9c47"><path d="M 0 0 L 74.980469 0 L 74.980469 74.980469 L 0 74.980469 Z M 0 0 " clip-rule="nonzero"/></clipPath><clipPath id="80298f3cef"><rect x="0" width="45" y="0" height="59"/></clipPath><clipPath id="7e432e3f6b"><rect x="0" width="75" y="0" height="75"/></clipPath></defs><g transform="matrix(1, 0, 0, 1, 0, -0.000000000000001893)"><g clip-path="url(#7e432e3f6b)"><g clip-path="url(#43b24d9c47)"><path fill="#5044e5" d="M 37.496094 74.996094 C 27.480469 74.996094 18.066406 71.09375 10.984375 64.011719 C 3.898438 56.929688 0 47.511719 0 37.496094 C 0 27.480469 3.898438 18.066406 10.984375 10.984375 C 18.066406 3.898438 27.480469 0 37.496094 0 C 47.511719 0 56.929688 3.898438 64.011719 10.984375 C 71.09375 18.066406 74.996094 27.480469 74.996094 37.496094 C 74.996094 43.074219 73.429688 48.25 73.359375 48.484375 C 72.734375 50.527344 71.929688 52.53125 70.964844 54.4375 L 74.636719 73.019531 C 74.710938 73.382812 74.597656 73.761719 74.335938 74.03125 C 74.074219 74.296875 73.699219 74.417969 73.332031 74.351562 L 54.304688 71.019531 C 52.292969 72.03125 50.179688 72.863281 48.019531 73.496094 C 47.808594 73.558594 42.8125 74.996094 37.496094 74.996094 Z M 37.496094 74.996094 " fill-opacity="1" fill-rule="nonzero"/></g><g transform="matrix(1, 0, 0, 1, 16, 6)"><g clip-path="url(#80298f3cef)"><g fill="#ffffff" fill-opacity="1"><g transform="translate(0.829405, 44.985401)"><g><path d="M 12.25 4.125 C 10.394531 4.125 8.960938 3.65625 7.953125 2.71875 C 6.941406 1.789062 6.4375 0.390625 6.4375 -1.484375 L 6.4375 -8.5 C 6.4375 -9.707031 6.179688 -10.554688 5.671875 -11.046875 C 5.171875 -11.546875 4.328125 -11.796875 3.140625 -11.796875 L 1.5625 -11.796875 L 1.5625 -14.59375 L 3.140625 -14.59375 C 4.328125 -14.59375 5.171875 -14.84375 5.671875 -15.34375 C 6.179688 -15.84375 6.4375 -16.703125 6.4375 -17.921875 L 6.4375 -24.921875 C 6.4375 -26.796875 6.941406 -28.195312 7.953125 -29.125 C 8.960938 -30.0625 10.394531 -30.53125 12.25 -30.53125 L 14.28125 -30.53125 L 14.28125 -27.96875 L 12.65625 -27.96875 C 11.582031 -27.96875 10.785156 -27.71875 10.265625 -27.21875 C 9.742188 -26.726562 9.484375 -25.960938 9.484375 -24.921875 L 9.484375 -18.15625 C 9.484375 -16.820312 9.226562 -15.789062 8.71875 -15.0625 C 8.207031 -14.332031 7.460938 -13.78125 6.484375 -13.40625 L 6.484375 -13 C 7.460938 -12.625 8.207031 -12.070312 8.71875 -11.34375 C 9.226562 -10.613281 9.484375 -9.582031 9.484375 -8.25 L 9.484375 -1.484375 C 9.484375 -0.441406 9.742188 0.320312 10.265625 0.8125 C 10.785156 1.3125 11.582031 1.5625 12.65625 1.5625 L 14.28125 1.5625 L 14.28125 4.125 Z M 12.25 4.125 "/></g></g><g transform="translate(16.533842, 44.985401)"><g/></g><g transform="translate(26.450355, 44.985401)"><g><path d="M 1.421875 4.125 L 1.421875 1.5625 L 3.015625 1.5625 C 4.097656 1.5625 4.898438 1.3125 5.421875 0.8125 C 5.941406 0.320312 6.203125 -0.441406 6.203125 -1.484375 L 6.203125 -8.25 C 6.203125 -9.582031 6.453125 -10.613281 6.953125 -11.34375 C 7.460938 -12.070312 8.21875 -12.625 9.21875 -13 L 9.21875 -13.40625 C 8.21875 -13.78125 7.460938 -14.332031 6.953125 -15.0625 C 6.453125 -15.789062 6.203125 -16.820312 6.203125 -18.15625 L 6.203125 -24.921875 C 6.203125 -25.960938 5.941406 -26.726562 5.421875 -27.21875 C 4.898438 -27.71875 4.097656 -27.96875 3.015625 -27.96875 L 1.421875 -27.96875 L 1.421875 -30.53125 L 3.4375 -30.53125 C 5.289062 -30.53125 6.722656 -30.0625 7.734375 -29.125 C 8.753906 -28.195312 9.265625 -26.796875 9.265625 -24.921875 L 9.265625 -17.921875 C 9.265625 -16.703125 9.515625 -15.84375 10.015625 -15.34375 C 10.523438 -14.84375 11.375 -14.59375 12.5625 -14.59375 L 14.125 -14.59375 L 14.125 -11.796875 L 12.5625 -11.796875 C 11.375 -11.796875 10.523438 -11.546875 10.015625 -11.046875 C 9.515625 -10.554688 9.265625 -9.707031 9.265625 -8.5 L 9.265625 -1.484375 C 9.265625 0.390625 8.753906 1.789062 7.734375 2.71875 C 6.722656 3.65625 5.289062 4.125 3.4375 4.125 Z M 1.421875 4.125 "/></g></g></g></g></g></g></g></svg>