<svg xmlns="http://www.w3.org/2000/svg" xmlns:xlink="http://www.w3.org/1999/xlink" width="750" zoomAndPan="magnify" viewBox="0 0 562.5 149.999998" height="200" preserveAspectRatio="xMidYMid meet" version="1.0"><defs><g/><clipPath id="653e20095d"><path d="M 0 8.945312 L 131.882812 8.945312 L 131.882812 140.828125 L 0 140.828125 Z M 0 8.945312 " clip-rule="nonzero"/></clipPath><clipPath id="33b07c923b"><rect x="0" width="78" y="0" height="102"/></clipPath><clipPath id="4b1bd27701"><rect x="0" width="404" y="0" height="110"/></clipPath></defs><g clip-path="url(#653e20095d)"><path fill="#ffffff" d="M 66.050781 141.050781 C 48.410156 141.050781 31.820312 134.179688 19.347656 121.703125 C 6.871094 109.226562 0 92.640625 0 74.996094 C 0 57.355469 6.871094 40.765625 19.347656 28.292969 C 31.820312 15.816406 48.410156 8.945312 66.050781 8.945312 C 83.695312 8.945312 100.28125 15.816406 112.757812 28.292969 C 125.234375 40.765625 132.105469 57.355469 132.105469 74.996094 C 132.105469 84.824219 129.347656 93.9375 129.222656 94.351562 C 128.125 97.953125 126.703125 101.476562 125.003906 104.839844 L 131.476562 137.566406 C 131.605469 138.214844 131.40625 138.878906 130.945312 139.351562 C 130.484375 139.820312 129.820312 140.035156 129.175781 139.921875 L 95.660156 134.046875 C 92.113281 135.832031 88.390625 137.296875 84.589844 138.410156 C 84.214844 138.519531 75.417969 141.050781 66.050781 141.050781 Z M 66.050781 141.050781 " fill-opacity="1" fill-rule="nonzero"/></g><g transform="matrix(1, 0, 0, 1, 29, 21)"><g clip-path="url(#33b07c923b)"><g fill="#5044e5" fill-opacity="1"><g transform="translate(0.644296, 77.753971)"><g><path d="M 21.578125 7.265625 C 18.304688 7.265625 15.78125 6.441406 14 4.796875 C 12.226562 3.148438 11.34375 0.679688 11.34375 -2.609375 L 11.34375 -14.96875 C 11.34375 -17.101562 10.894531 -18.601562 10 -19.46875 C 9.113281 -20.34375 7.625 -20.78125 5.53125 -20.78125 L 2.75 -20.78125 L 2.75 -25.71875 L 5.53125 -25.71875 C 7.625 -25.71875 9.113281 -26.15625 10 -27.03125 C 10.894531 -27.914062 11.34375 -29.425781 11.34375 -31.5625 L 11.34375 -43.921875 C 11.34375 -47.210938 12.226562 -49.679688 14 -51.328125 C 15.78125 -52.972656 18.304688 -53.796875 21.578125 -53.796875 L 25.15625 -53.796875 L 25.15625 -49.28125 L 22.3125 -49.28125 C 20.40625 -49.28125 18.992188 -48.84375 18.078125 -47.96875 C 17.160156 -47.09375 16.703125 -45.742188 16.703125 -43.921875 L 16.703125 -31.984375 C 16.703125 -29.640625 16.253906 -27.820312 15.359375 -26.53125 C 14.472656 -25.25 13.15625 -24.28125 11.40625 -23.625 L 11.40625 -22.890625 C 13.15625 -22.242188 14.472656 -21.273438 15.359375 -19.984375 C 16.253906 -18.703125 16.703125 -16.890625 16.703125 -14.546875 L 16.703125 -2.609375 C 16.703125 -0.773438 17.160156 0.570312 18.078125 1.4375 C 18.992188 2.3125 20.40625 2.75 22.3125 2.75 L 25.15625 2.75 L 25.15625 7.265625 Z M 21.578125 7.265625 "/></g></g><g transform="translate(28.307007, 77.753971)"><g/></g><g transform="translate(45.77453, 77.753971)"><g><path d="M 2.5 7.265625 L 2.5 2.75 L 5.328125 2.75 C 7.222656 2.75 8.628906 2.3125 9.546875 1.4375 C 10.460938 0.570312 10.921875 -0.773438 10.921875 -2.609375 L 10.921875 -14.546875 C 10.921875 -16.890625 11.367188 -18.703125 12.265625 -19.984375 C 13.160156 -21.273438 14.488281 -22.242188 16.25 -22.890625 L 16.25 -23.625 C 14.488281 -24.28125 13.160156 -25.25 12.265625 -26.53125 C 11.367188 -27.820312 10.921875 -29.640625 10.921875 -31.984375 L 10.921875 -43.921875 C 10.921875 -45.742188 10.460938 -47.09375 9.546875 -47.96875 C 8.628906 -48.84375 7.222656 -49.28125 5.328125 -49.28125 L 2.5 -49.28125 L 2.5 -53.796875 L 6.0625 -53.796875 C 9.332031 -53.796875 11.859375 -52.972656 13.640625 -51.328125 C 15.421875 -49.679688 16.3125 -47.210938 16.3125 -43.921875 L 16.3125 -31.5625 C 16.3125 -29.425781 16.757812 -27.914062 17.65625 -27.03125 C 18.550781 -26.15625 20.039062 -25.71875 22.125 -25.71875 L 24.875 -25.71875 L 24.875 -20.78125 L 22.125 -20.78125 C 20.039062 -20.78125 18.550781 -20.34375 17.65625 -19.46875 C 16.757812 -18.601562 16.3125 -17.101562 16.3125 -14.96875 L 16.3125 -2.609375 C 16.3125 0.679688 15.421875 3.148438 13.640625 4.796875 C 11.859375 6.441406 9.332031 7.265625 6.0625 7.265625 Z M 2.5 7.265625 "/></g></g></g></g></g><g transform="matrix(1, 0, 0, 1, 158, 22)"><g clip-path="url(#4b1bd27701)"><g fill="#ffffff" fill-opacity="1"><g transform="translate(0.88229, 85.711952)"><g><path d="M 5.859375 0 L 5.859375 -65.59375 L 28.828125 -65.59375 C 36.785156 -65.59375 42.820312 -64.066406 46.9375 -61.015625 C 51.050781 -57.972656 53.109375 -53.507812 53.109375 -47.625 C 53.109375 -44.40625 52.28125 -41.570312 50.625 -39.125 C 48.976562 -36.675781 46.6875 -34.882812 43.75 -33.75 C 47.113281 -32.90625 49.765625 -31.207031 51.703125 -28.65625 C 53.640625 -26.101562 54.609375 -22.976562 54.609375 -19.28125 C 54.609375 -12.976562 52.59375 -8.203125 48.5625 -4.953125 C 44.539062 -1.710938 38.804688 -0.0625 31.359375 0 Z M 19.375 -28.5625 L 19.375 -10.859375 L 30.953125 -10.859375 C 34.128906 -10.859375 36.613281 -11.613281 38.40625 -13.125 C 40.195312 -14.644531 41.09375 -16.742188 41.09375 -19.421875 C 41.09375 -25.421875 37.984375 -28.46875 31.765625 -28.5625 Z M 19.375 -38.109375 L 29.375 -38.109375 C 36.1875 -38.234375 39.59375 -40.953125 39.59375 -46.265625 C 39.59375 -49.242188 38.726562 -51.382812 37 -52.6875 C 35.28125 -53.988281 32.554688 -54.640625 28.828125 -54.640625 L 19.375 -54.640625 Z M 19.375 -38.109375 "/></g></g></g><g fill="#ffffff" fill-opacity="1"><g transform="translate(59.75822, 85.711952)"><g><path d="M 18.734375 0 L 5.671875 0 L 5.671875 -69.203125 L 18.734375 -69.203125 Z M 18.734375 0 "/></g></g></g><g fill="#ffffff" fill-opacity="1"><g transform="translate(84.218538, 85.711952)"><g><path d="M 2.96875 -24.828125 C 2.96875 -29.660156 3.898438 -33.96875 5.765625 -37.75 C 7.628906 -41.539062 10.3125 -44.46875 13.8125 -46.53125 C 17.3125 -48.601562 21.375 -49.640625 26 -49.640625 C 32.570312 -49.640625 37.9375 -47.628906 42.09375 -43.609375 C 46.257812 -39.585938 48.582031 -34.125 49.0625 -27.21875 L 49.15625 -23.875 C 49.15625 -16.394531 47.066406 -10.394531 42.890625 -5.875 C 38.710938 -1.351562 33.109375 0.90625 26.078125 0.90625 C 19.054688 0.90625 13.445312 -1.34375 9.25 -5.84375 C 5.0625 -10.351562 2.96875 -16.484375 2.96875 -24.234375 Z M 16 -23.875 C 16 -19.25 16.867188 -15.710938 18.609375 -13.265625 C 20.347656 -10.816406 22.835938 -9.59375 26.078125 -9.59375 C 29.234375 -9.59375 31.695312 -10.800781 33.46875 -13.21875 C 35.238281 -15.632812 36.125 -19.503906 36.125 -24.828125 C 36.125 -29.359375 35.238281 -32.867188 33.46875 -35.359375 C 31.695312 -37.859375 29.207031 -39.109375 26 -39.109375 C 22.8125 -39.109375 20.347656 -37.867188 18.609375 -35.390625 C 16.867188 -32.910156 16 -29.070312 16 -23.875 Z M 16 -23.875 "/></g></g></g><g fill="#ffffff" fill-opacity="1"><g transform="translate(136.382515, 85.711952)"><g><path d="M 3.109375 -24.734375 C 3.109375 -32.210938 4.882812 -38.234375 8.4375 -42.796875 C 12 -47.359375 16.800781 -49.640625 22.84375 -49.640625 C 28.1875 -49.640625 32.347656 -47.8125 35.328125 -44.15625 L 35.859375 -48.75 L 47.671875 -48.75 L 47.671875 -1.625 C 47.671875 2.644531 46.703125 6.351562 44.765625 9.5 C 42.828125 12.65625 40.097656 15.054688 36.578125 16.703125 C 33.066406 18.359375 28.953125 19.1875 24.234375 19.1875 C 20.660156 19.1875 17.175781 18.472656 13.78125 17.046875 C 10.382812 15.617188 7.816406 13.78125 6.078125 11.53125 L 11.84375 3.609375 C 15.09375 7.242188 19.03125 9.0625 23.65625 9.0625 C 27.101562 9.0625 29.785156 8.132812 31.703125 6.28125 C 33.628906 4.4375 34.59375 1.816406 34.59375 -1.578125 L 34.59375 -4.1875 C 31.59375 -0.789062 27.644531 0.90625 22.75 0.90625 C 16.894531 0.90625 12.15625 -1.382812 8.53125 -5.96875 C 4.914062 -10.550781 3.109375 -16.625 3.109375 -24.1875 Z M 16.125 -23.78125 C 16.125 -19.375 17.007812 -15.914062 18.78125 -13.40625 C 20.550781 -10.894531 22.984375 -9.640625 26.078125 -9.640625 C 30.046875 -9.640625 32.882812 -11.125 34.59375 -14.09375 L 34.59375 -34.59375 C 32.851562 -37.570312 30.046875 -39.0625 26.171875 -39.0625 C 23.046875 -39.0625 20.585938 -37.785156 18.796875 -35.234375 C 17.015625 -32.679688 16.125 -28.863281 16.125 -23.78125 Z M 16.125 -23.78125 "/></g></g></g><g fill="#ffffff" fill-opacity="1"><g transform="translate(189.042012, 85.711952)"><g><path d="M 57.34375 -21.84375 C 56.832031 -14.789062 54.226562 -9.234375 49.53125 -5.171875 C 44.832031 -1.117188 38.640625 0.90625 30.953125 0.90625 C 22.546875 0.90625 15.929688 -1.921875 11.109375 -7.578125 C 6.285156 -13.242188 3.875 -21.019531 3.875 -30.90625 L 3.875 -34.921875 C 3.875 -41.222656 4.984375 -46.773438 7.203125 -51.578125 C 9.429688 -56.390625 12.609375 -60.078125 16.734375 -62.640625 C 20.867188 -65.210938 25.664062 -66.5 31.125 -66.5 C 38.695312 -66.5 44.796875 -64.46875 49.421875 -60.40625 C 54.046875 -56.351562 56.71875 -50.664062 57.4375 -43.34375 L 43.921875 -43.34375 C 43.597656 -47.570312 42.421875 -50.640625 40.390625 -52.546875 C 38.359375 -54.453125 35.269531 -55.40625 31.125 -55.40625 C 26.625 -55.40625 23.253906 -53.789062 21.015625 -50.5625 C 18.773438 -47.34375 17.625 -42.335938 17.5625 -35.546875 L 17.5625 -30.59375 C 17.5625 -23.5 18.632812 -18.316406 20.78125 -15.046875 C 22.9375 -11.773438 26.328125 -10.140625 30.953125 -10.140625 C 35.128906 -10.140625 38.242188 -11.09375 40.296875 -13 C 42.359375 -14.90625 43.535156 -17.851562 43.828125 -21.84375 Z M 57.34375 -21.84375 "/></g></g></g><g fill="#ffffff" fill-opacity="1"><g transform="translate(249.404472, 85.711952)"><g><path d="M 2.96875 -24.828125 C 2.96875 -29.660156 3.898438 -33.96875 5.765625 -37.75 C 7.628906 -41.539062 10.3125 -44.46875 13.8125 -46.53125 C 17.3125 -48.601562 21.375 -49.640625 26 -49.640625 C 32.570312 -49.640625 37.9375 -47.628906 42.09375 -43.609375 C 46.257812 -39.585938 48.582031 -34.125 49.0625 -27.21875 L 49.15625 -23.875 C 49.15625 -16.394531 47.066406 -10.394531 42.890625 -5.875 C 38.710938 -1.351562 33.109375 0.90625 26.078125 0.90625 C 19.054688 0.90625 13.445312 -1.34375 9.25 -5.84375 C 5.0625 -10.351562 2.96875 -16.484375 2.96875 -24.234375 Z M 16 -23.875 C 16 -19.25 16.867188 -15.710938 18.609375 -13.265625 C 20.347656 -10.816406 22.835938 -9.59375 26.078125 -9.59375 C 29.234375 -9.59375 31.695312 -10.800781 33.46875 -13.21875 C 35.238281 -15.632812 36.125 -19.503906 36.125 -24.828125 C 36.125 -29.359375 35.238281 -32.867188 33.46875 -35.359375 C 31.695312 -37.859375 29.207031 -39.109375 26 -39.109375 C 22.8125 -39.109375 20.347656 -37.867188 18.609375 -35.390625 C 16.867188 -32.910156 16 -29.070312 16 -23.875 Z M 16 -23.875 "/></g></g></g><g fill="#ffffff" fill-opacity="1"><g transform="translate(301.568449, 85.711952)"><g><path d="M 2.96875 -24.734375 C 2.96875 -32.328125 4.671875 -38.375 8.078125 -42.875 C 11.492188 -47.382812 16.160156 -49.640625 22.078125 -49.640625 C 26.816406 -49.640625 30.734375 -47.867188 33.828125 -44.328125 L 33.828125 -69.203125 L 46.90625 -69.203125 L 46.90625 0 L 35.140625 0 L 34.515625 -5.1875 C 31.265625 -1.125 27.085938 0.90625 21.984375 0.90625 C 16.242188 0.90625 11.640625 -1.351562 8.171875 -5.875 C 4.703125 -10.394531 2.96875 -16.679688 2.96875 -24.734375 Z M 16 -23.78125 C 16 -19.21875 16.789062 -15.71875 18.375 -13.28125 C 19.96875 -10.851562 22.28125 -9.640625 25.3125 -9.640625 C 29.34375 -9.640625 32.179688 -11.335938 33.828125 -14.734375 L 33.828125 -33.96875 C 32.210938 -37.363281 29.40625 -39.0625 25.40625 -39.0625 C 19.132812 -39.0625 16 -33.96875 16 -23.78125 Z M 16 -23.78125 "/></g></g></g><g fill="#ffffff" fill-opacity="1"><g transform="translate(353.552224, 85.711952)"><g><path d="M 27.4375 0.90625 C 20.289062 0.90625 14.472656 -1.285156 9.984375 -5.671875 C 5.492188 -10.054688 3.25 -15.898438 3.25 -23.203125 L 3.25 -24.46875 C 3.25 -29.363281 4.191406 -33.738281 6.078125 -37.59375 C 7.972656 -41.457031 10.65625 -44.429688 14.125 -46.515625 C 17.59375 -48.597656 21.550781 -49.640625 26 -49.640625 C 32.664062 -49.640625 37.910156 -47.535156 41.734375 -43.328125 C 45.566406 -39.128906 47.484375 -33.171875 47.484375 -25.453125 L 47.484375 -20.140625 L 16.4375 -20.140625 C 16.863281 -16.953125 18.132812 -14.394531 20.25 -12.46875 C 22.363281 -10.550781 25.046875 -9.59375 28.296875 -9.59375 C 33.304688 -9.59375 37.222656 -11.410156 40.046875 -15.046875 L 46.453125 -7.890625 C 44.492188 -5.117188 41.847656 -2.957031 38.515625 -1.40625 C 35.179688 0.132812 31.488281 0.90625 27.4375 0.90625 Z M 25.953125 -39.109375 C 23.367188 -39.109375 21.269531 -38.234375 19.65625 -36.484375 C 18.050781 -34.742188 17.023438 -32.253906 16.578125 -29.015625 L 34.6875 -29.015625 L 34.6875 -30.046875 C 34.625 -32.929688 33.84375 -35.160156 32.34375 -36.734375 C 30.84375 -38.316406 28.710938 -39.109375 25.953125 -39.109375 Z M 25.953125 -39.109375 "/></g></g></g></g></g></svg>